# xmcd
#
# Track frame offsets:
#	150
#	9787
#	19735
#	28417
#	42717
#	51960
#	64227
#	76725
#	91592
#	100665
#	113370
#	123290
#	135930
#	148302
#	159302
#	175987
#	185377
#	195085
#	203290
#	212935
#
# Disc length: 2980 seconds
#
# Revision: 1
# Processed by: cddbd v1.4PL0 Copyright (c) Steve Scherf et al.
# Submitted via: audiograbber 1.81.02
#
DISCID=fa0ba214
DTITLE=Various Artist - Country Christmas Disc 1
DYEAR=1900
DGENRE=Country
TTITLE0=Loretta Lynn - Country Christmas
TTITLE1=George Strait - Santa Clause Is Coming To Town
TTITLE2=Elvis Presley - I'll Be Home For Christmas
TTITLE3=Gene Autry - Rudolph The Red - Nosed Raindeer
TTITLE4=Buck Owens - Santa's Gonna Come In A Stagecoach
TTITLE5=Merle Haggard - If We Make It Through December
TTITLE6=Roy Orbison - Pretty Paper
TTITLE7=Marty Robins - Christmas Prayer
TTITLE8=George Jones And Tammy Wynette - Mr. And Mrs. Santa Clause
TTITLE9=Jim Reeves - An Ols Christmas Card
TTITLE10=Willie Nelson - Jingle Bells
TTITLE11=Bill Monroe - Christmas Time's A Comin'
TTITLE12=the Statler Brothers - Carols Those Kids Used To Sing
TTITLE13=Reba McEntire - Away In A Manger
TTITLE14=Alabama - Tennessee Christmas
TTITLE15=Roger Miller - Old Toy Trains
TTITLE16=Elvis Presley - Blue Christmas
TTITLE17=Chet Atkins - Jingle Bell Rock
TTITLE18=Charley Pride - Christmas In My Home Town
TTITLE19=Ernest Tubb - I'll Be Walkin' The Floor This Christmas
EXTD=
EXTT0=
EXTT1=
EXTT2=
EXTT3=
EXTT4=
EXTT5=
EXTT6=
EXTT7=
EXTT8=
EXTT9=
EXTT10=
EXTT11=
EXTT12=
EXTT13=
EXTT14=
EXTT15=
EXTT16=
EXTT17=
EXTT18=
EXTT19=
PLAYORDER=
